#!OML:ASF H:\Punching\Project 1\Capture day 1\Session 1\female.ASF
:FULLY-SPECIFIED
:DEGREES
1277
root 3.3606 11.1732 -1.51924 19.9185 -8.9565 7.48271
lowerback 26.0868 1.94827 -4.46899
upperback 1.08556 1.17314 -0.242253
thorax -13.4979 0.799694 1.8652
lowerneck -13.4941 5.45656 10.1645
upperneck 7.50621 6.74865 -11.3123
head 5.20497 2.91029 -4.6225
rclavicle -1.27222e-014 -5.56597e-015
rhumerus 21.0182 19.2173 -75.8796
rradius 110.301
rwrist -27.6569
rhand -1.32007 -21.5866
rfingers 7.12502
rthumb 24.3254 -50.063
lclavicle -1.27222e-014 -5.56597e-015
lhumerus 34.1138 -28.5571 73.7106
lradius 139.205
lwrist 13.0427
lhand -22.8766 8.09523
lfingers 7.12502
lthumb 3.56226 38.0452
rfemur -46.4544 -44.1634 -13.7098
rtibia 96.3222
rfoot -36.5407 -4.22294
rtoes -31.4588
lfemur -87.8066 10.4624 -23.291
ltibia 92.0377
lfoot -20.7951 5.91804
ltoes -10.1586
1278
root 3.35232 11.1847 -1.54083 19.8182 -8.88497 7.63205
lowerback 25.8243 2.25873 -4.22181
upperback 1.15429 1.66751 -0.228571
thorax -13.2998 1.00344 1.56123
lowerneck -13.9498 4.97064 9.67382
upperneck 7.85155 6.12812 -10.9764
head 5.29095 2.59595 -4.49146
rclavicle 2.06736e-014 -1.03368e-014
rhumerus 24.9406 19.0417 -74.8691
rradius 104.167
rwrist -25.6953
rhand -0.920013 -22.619
rfingers 7.12502
rthumb 24.7089 -51.0434
lclavicle 2.06736e-014 -1.03368e-014
lhumerus 33.9141 -28.8939 74.151
lradius 139.177
lwrist 12.8891
lhand -22.9305 8.18013
lfingers 7.12502
lthumb 3.5102 38.131
rfemur -46.4717 -44.0469 -13.7594
rtibia 96.3475
rfoot -36.4941 -4.46441
rtoes -31.1291
lfemur -87.6069 10.2483 -23.2755
ltibia 91.7336
lfoot -20.5968 6.03636
ltoes -10.405
1279
root 3.34529 11.2024 -1.56107 19.7309 -8.89352 7.78143
lowerback 25.5457 2.56336 -3.99262
upperback 1.21488 2.14446 -0.240888
thorax -13.0965 1.20127 1.24852
lowerneck -14.3946 4.51294 9.23147
upperneck 8.20609 5.5442 -10.6611
head 5.38924 2.30074 -4.37236
rclavicle 4.85035e-014 -1.98785e-014
rhumerus 28.9464 18.8608 -73.93
rradius 97.3049
rwrist -23.9498
rhand -1.10604 -23.4981
rfingers 7.12502
rthumb 24.5306 -51.9468
lclavicle 4.85035e-014 -1.98785e-014
lhumerus 33.7847 -29.2217 74.5206
lradius 139.17
lwrist 12.8037
lhand -22.9774 8.21861
lfingers 7.12502
lthumb 3.46496 38.1702
rfemur -46.5523 -43.87 -13.7562
rtibia 96.2979
rfoot -36.428 -4.70241
rtoes -30.7948
lfemur -87.3643 10.0838 -23.2821
ltibia 91.3816
lfoot -20.4082 6.17446
ltoes -10.6344
1280
root 3.33949 11.2258 -1.57948 19.6456 -8.98279 7.93567
lowerback 25.2747 2.86141 -3.77255
upperback 1.25865 2.60277 -0.292966
thorax -12.9099 1.39175 0.906124
lowerneck -14.8099 4.08007 8.84995
upperneck 8.56914 4.9894 -10.3614
head 5.49496 2.02233 -4.26676
rclavicle 1.51076e-014 -2.70347e-014
rhumerus 32.9536 18.654 -73.1181
rradius 89.7244
rwrist -22.3764
rhand -2.02675 -24.1502
rfingers 7.12502
rthumb 23.6477 -52.7158
lclavicle 1.51076e-014 -2.70347e-014
lhumerus 33.7162 -29.5682 74.8148
lradius 139.179
lwrist 12.7693
lhand -22.9989 8.20044
lfingers 7.12502
lthumb 3.4442 38.1524
rfemur -46.6765 -43.6381 -13.7224
rtibia 96.1722
rfoot -36.3426 -4.92275
rtoes -30.4681
lfemur -87.0672 9.97082 -23.3152
ltibia 90.9862
lfoot -20.2359 6.32933
ltoes -10.8353
1281
root 3.33501 11.2548 -1.59611 19.5616 -9.14636 8.10475
lowerback 25.0298 3.14934 -3.55451
upperback 1.27582 3.03744 -0.398857
thorax -12.7594 1.57159 0.514693
lowerneck -15.1906 3.6701 8.54269
upperneck 8.94245 4.4569 -10.0734
head 5.60639 1.75836 -4.17634
rclavicle -1.43125e-014 1.59028e-015
rhumerus 36.8821 18.3974 -72.4714
rradius 81.4811
rwrist -20.8821
rhand -3.72377 -24.5277
rfingers 7.12502
rthumb 22.0192 -53.2942
lclavicle -1.43125e-014 1.59028e-015
lhumerus 33.6965 -29.9495 75.036
lradius 139.193
lwrist 12.7534
lhand -22.9682 8.13095
lfingers 7.12502
lthumb 3.47379 38.0824
rfemur -46.8334 -43.3695 -13.6793
rtibia 95.9722
rfoot -36.2378 -5.11109
rtoes -30.14
lfemur -86.7179 9.89378 -23.3805
ltibia 90.547
lfoot -20.0777 6.50847
ltoes -11.0071
1282
root 3.33152 11.2886 -1.61066 19.4763 -9.36344 8.28821
lowerback 24.8294 3.41845 -3.32695
upperback 1.26205 3.43983 -0.560751
thorax -12.6579 1.73567 0.0666164
lowerneck -15.5458 3.28528 8.31311
upperneck 9.32797 3.94627 -9.79209
head 5.72468 1.50904 -4.10005
rclavicle -3.10104e-014 0
rhumerus 40.6593 18.0582 -72.0149
rradius 72.7159
rwrist -19.33
rhand -6.04257 -24.6644
rfingers 7.12502
rthumb 19.7914 -53.6767
lclavicle -3.10104e-014 0
lhumerus 33.7334 -30.3394 75.185
lradius 139.189
lwrist 12.7463
lhand -22.869 8.02525
lfingers 7.12502
lthumb 3.56959 37.9751
rfemur -46.9963 -43.0769 -13.6376
rtibia 95.7019
rfoot -36.1219 -5.26735
rtoes -29.8089
lfemur -86.3182 9.83888 -23.4713
ltibia 90.065
lfoot -19.9295 6.70661
ltoes -11.154
